# xmcd
# 
# Track frame offsets:
#     150
#     17401
#     34251
#     47506
#     64199
#     79786
#     92382
#     114411
#     129130
#     142617
#     156831
# 
# Disc length: 2450
# 
# Revision: 1
# Processed by: cddbd v1.5.2PL0 Copyright (c) Steve Scherf et al.
# Submitted via: fre:ac v1.0.31
# 
DISCID=7609900b
DTITLE=Lanco - Hallelujah Nights
DYEAR=2018
DGENRE=Country
TTITLE0=Born To Love You
TTITLE1=Long Live Tonight
TTITLE2=Pick You Up
TTITLE3=Greatest Love Story
TTITLE4=We Do
TTITLE5=Trouble Maker
TTITLE6=Singin' At The Stars
TTITLE7=Win You Over
TTITLE8=So Long (I Do)
TTITLE9=Middle Of The Night
TTITLE10=Hallelujah Nights
EXTD=
EXTT0=
EXTT1=
EXTT2=
EXTT3=
EXTT4=
EXTT5=
EXTT6=
EXTT7=
EXTT8=
EXTT9=
EXTT10=
PLAYORDER=
